<svg xmlns="http://www.w3.org/2000/svg" viewBox="0 0 734 132"><defs><style>.cls-1{fill:#42464d;}</style></defs><title>Hoodoo Dark</title><g id="Layer_2" data-name="Layer 2"><g id="Hoodoo_Dark" data-name="Hoodoo Dark"><g id="Hoodoo_Dark-2" data-name="Hoodoo Dark"><g id="o"><path class="cls-1" d="M688,132a46,46,0,1,1,46-46A46.06,46.06,0,0,1,688,132Zm0-80.66A34.66,34.66,0,1,0,722.66,86,34.7,34.7,0,0,0,688,51.34Z"/></g><g id="o-2" data-name="o"><path class="cls-1" d="M561,132a46,46,0,1,1,46-46A46.06,46.06,0,0,1,561,132Zm0-80.66A34.66,34.66,0,1,0,595.66,86,34.7,34.7,0,0,0,561,51.34Z"/></g><g id="d"><path class="cls-1" d="M474.5,0A5.59,5.59,0,0,0,469,5.67V56.39a45.83,45.83,0,1,0,11,29.72h0V5.67A5.59,5.59,0,0,0,474.5,0ZM434,120.69a34.58,34.58,0,1,1,34.66-34.58A34.66,34.66,0,0,1,434,120.69Z"/></g><g id="o-3" data-name="o"><path class="cls-1" d="M307,132a46,46,0,1,1,46-46A46.06,46.06,0,0,1,307,132Zm0-80.66A34.66,34.66,0,1,0,341.66,86,34.7,34.7,0,0,0,307,51.34Z"/></g><g id="o-4" data-name="o"><path class="cls-1" d="M180,132a46,46,0,1,1,46-46A46.06,46.06,0,0,1,180,132Zm0-80.66A34.66,34.66,0,1,0,214.66,86,34.7,34.7,0,0,0,180,51.34Z"/></g><g id="H"><path class="cls-1" d="M93.65,0A5.72,5.72,0,0,0,88,5.66V74.34A7.62,7.62,0,0,1,80.57,82H15.21A4.31,4.31,0,0,1,11,77.6V33.24a5.56,5.56,0,0,0-5.65-5.48A5.31,5.31,0,0,0,0,33.24v93.27A5.32,5.32,0,0,0,5.35,132,5.57,5.57,0,0,0,11,126.51V97.39A4.31,4.31,0,0,1,15.19,93H83.64A4.6,4.6,0,0,1,88,97.54v29A5.57,5.57,0,0,0,93.65,132,5.32,5.32,0,0,0,99,126.51V5.66A5.46,5.46,0,0,0,93.65,0Z"/></g></g></g></g></svg>